<?xml version="1.0" standalone="no"?><!DOCTYPE svg PUBLIC "-//W3C//DTD SVG 1.1//EN" "http://www.w3.org/Graphics/SVG/1.1/DTD/svg11.dtd"><svg class="icon" style="" viewBox="0 0 1024 1024" version="1.1" xmlns="http://www.w3.org/2000/svg" p-id="2053" xmlns:xlink="http://www.w3.org/1999/xlink" width="200" height="200"><defs><style type="text/css"><![CDATA[

]]></style></defs><path d="M601.9328 172.6464c7.53408 40.57856 5.84192 83.08736-5.024 126.34496-12.45184 49.53216-31.98464 90.3232-59.712 124.70784-2.9056 3.5904-4.93184 8.08832-5.26336 17.40288 3.07328 2.2656 9.6896 6.07488 20.95488 9.53088 57.29152 17.53216 105.04576 38.12224 146.00832 62.95168 21.33632 12.91904 48.43392 31.1872 68.77056 57.95328 14.73664 19.40352 21.91744 40.60544 21.34912 63.05152-0.01024 0.46464-0.02688 0.93568-0.0384 1.41312-0.01792 0.6016-0.04736 1.41568-0.04224 1.81248 0.50816 5.78432 0.25856 11.61216-0.73344 17.48096l82.73024 0c0 0 49.9648-35.71968 46.86592-69.18272-0.20992-2.25536-0.0768-4.5568-0.01792-6.816 0.39168-15.58656-4.95744-29.50528-14.6368-42.25152-15.70304-20.66176-36.89856-35.94496-59.59552-49.69344-42.93888-26.01472-89.83424-44.70784-138.56384-59.61984-19.40992-5.9456-43.97568-17.92384-44.32128-35.74272-0.31616-15.92704 2.14912-30.53056 12.5952-43.46624 26.06336-32.32128 42.91328-70.34112 53.39264-112.03584 9.3248-37.10464 11.60064-74.49088 4.58368-112.27008-7.10016-38.22208-23.41888-70.5984-52.36096-93.67808C652.70144 9.64864 624.25856 0 594.3552 0c-12.36224 0-24.97024 1.64992-37.77152 4.82432-22.8288 5.67936-42.16192 15.89376-57.96992 30.46272 13.6128 6.01984 26.6688 13.99808 39.09632 23.91552C571.32288 86.01984 592.928 124.1856 601.9328 172.6464zM756.03584 640.57728c-0.21376-2.26176-0.08192-4.55552-0.02432-6.8288 0.39296-15.584-4.95104-29.50272-14.63168-42.24896-15.70048-20.65152-36.896-35.94496-59.59296-49.696-42.93888-26.01472-89.83808-44.69632-138.56768-59.61728-19.40608-5.94816-43.9744-17.9136-44.32128-35.74272-0.31616-15.9168 2.15168-30.51904 12.59776-43.4624 26.05952-32.31488 42.912-70.33856 53.39008-112.02688 9.3248-37.1072 11.60448-74.5024 4.58624-112.2816-7.10144-38.22848-23.41888-70.5856-52.3584-93.67808-26.17728-20.89216-54.62144-30.5408-84.5184-30.5408-12.36736 0-24.97024 1.64736-37.77152 4.83456-49.80608 12.3648-83.01824 46.336-99.13856 99.99104-11.61216 38.65216-11.44064 78.17728-3.48416 117.504 10.12224 50.04288 29.91232 78.50112 61.39392 116.5952 1.24544 1.50912 2.75456 2.9632 3.45472 4.76928 10.9824 28.3136-13.03808 72.64512-42.37184 82.8096-22.74944 7.88864-45.2992 16.416-67.30112 25.85088-35.06304 15.04768-68.91008 32.16384-98.44096 55.32288-18.5856 14.57536-36.43776 30.21056-42.39616 52.66688-3.05792 11.51872-2.62272 23.89376-2.848 35.89376-0.28288 15.51872 5.86624 29.32992 18.45376 39.75296 8.9856 7.4624 29.77792 19.5136 29.77792 19.5136l102.91072-0.20736 454.33856 0C709.16992 709.74976 759.136 674.03648 756.03584 640.57728zM109.57184 808.69248l73.18784 0L182.75968 1024l28.33024 0L211.08992 808.69248l73.18528 0 0-27.9104L109.57184 780.78208 109.57184 808.69248zM343.29856 913.68704l118.04288 0 0-29.23776-118.04288 0 0-75.7568 127.488 0 0-27.9104L313.78688 780.78208 313.78688 1024l159.35744 0 0-29.24032L343.29856 994.75968 343.29856 913.68704zM574.6624 780.78208 493.21344 1024l29.51168 0 22.42688-70.44096 87.35232 0L653.75104 1024l31.872 0-77.90976-243.21792L574.6624 780.78208zM554.59456 924.32128l34.2336-107.65312 1.18016 0 31.87072 107.65312L554.59456 924.32128zM876.85376 780.78208l-61.38368 206.0032-62.56256-206.0032-42.496 0L710.41152 1024l29.51168 0L739.9232 863.18464c-0.7936-19.47904-1.18016-34.0992-1.18016-43.86048l1.18016 0L800.12416 1024l29.51168 0 61.38368-204.67584L891.01952 1024l28.32896 0L919.34848 780.78208 876.85376 780.78208z" p-id="2054"></path></svg>